<svg width="90" height="100" viewBox="0 0 90 100" fill="none" xmlns="http://www.w3.org/2000/svg">
<path d="M70.0781 64.9219L90 49.9219V64.9219C90 69.7656 88.5938 74.2969 85.7812 78.5156C83.125 82.7344 79.5312 86.4844 75 89.7656C70.625 92.8906 65.7812 95.3906 60.4688 97.2656C55.3125 98.9844 50.1562 99.8438 45 99.8438C39.8438 99.8438 34.6094 98.9844 29.2969 97.2656C24.1406 95.3906 19.2969 92.8906 14.7656 89.7656C10.3906 86.4844 6.79688 82.7344 3.98438 78.5156C1.32812 74.2969 0 69.7656 0 64.9219V49.9219L19.9219 64.9219L12.1875 72.6562C13.9062 75.4688 16.1719 78.0469 18.9844 80.3906C21.9531 82.7344 25.2344 84.6875 28.8281 86.25C32.5781 87.8125 36.3281 88.9062 40.0781 89.5312V45H25.0781V34.9219H40.0781V29.0625C37.1094 27.9687 34.6875 26.1719 32.8125 23.6719C30.9375 21.0156 30 18.125 30 15C30 12.1875 30.625 9.6875 31.875 7.5C33.2812 5.15625 35.0781 3.35937 37.2656 2.10938C39.6094 0.703125 42.1875 0 45 0C47.8125 0 50.3125 0.703125 52.5 2.10938C54.8438 3.35937 56.6406 5.15625 57.8906 7.5C59.2969 9.6875 60 12.1875 60 15C60 18.125 59.0625 21.0156 57.1875 23.6719C55.3125 26.1719 52.8906 27.9687 49.9219 29.0625V34.9219H64.9219V45H49.9219V89.5312C53.6719 88.9062 57.3438 87.8125 60.9375 86.25C64.6875 84.6875 67.9688 82.7344 70.7812 80.3906C73.75 78.0469 76.0938 75.4688 77.8125 72.6562L70.0781 64.9219ZM45 9.84375C43.5938 9.84375 42.4219 10.3906 41.4844 11.4844C40.5469 12.4219 40.0781 13.5938 40.0781 15C40.0781 16.25 40.5469 17.4219 41.4844 18.5156C42.4219 19.4531 43.5938 19.9219 45 19.9219C46.4062 19.9219 47.5781 19.4531 48.5156 18.5156C49.4531 17.4219 49.9219 16.25 49.9219 15C49.9219 13.5938 49.4531 12.4219 48.5156 11.4844C47.5781 10.3906 46.4062 9.84375 45 9.84375Z" fill="#0DA6F2"/>
</svg>
