<svg width="15" height="17" viewBox="0 0 15 17" fill="none" xmlns="http://www.w3.org/2000/svg">
<path d="M9.92188 16.6406H9.80469C8.60677 16.3281 7.57812 15.7422 6.71875 14.8828C6.22396 14.388 5.79427 13.724 5.42969 12.8906C5.09115 12.0312 4.92188 11.25 4.92188 10.5469C4.92188 9.86979 5.16927 9.29688 5.66406 8.82812C6.15885 8.33333 6.75781 8.08594 7.46094 8.08594C8.16406 8.08594 8.76302 8.33333 9.25781 8.82812C9.77865 9.29688 10.0391 9.86979 10.0391 10.5469C10.0391 10.9896 10.1953 11.3672 10.5078 11.6797C10.8464 11.9922 11.263 12.1484 11.7578 12.1484C12.2526 12.1484 12.6693 11.9922 13.0078 11.6797C13.3464 11.3672 13.5156 10.9896 13.5156 10.5469C13.5156 8.98438 12.9167 7.64323 11.7188 6.52344C10.5469 5.40365 9.1276 4.84375 7.46094 4.84375C6.26302 4.84375 5.16927 5.15625 4.17969 5.78125C3.1901 6.38021 2.44792 7.1875 1.95312 8.20312C1.64062 8.85417 1.48438 9.63542 1.48438 10.5469C1.48438 11.5885 1.66667 12.5911 2.03125 13.5547C2.10938 13.8151 2.01823 13.9844 1.75781 14.0625C1.4974 14.1406 1.32812 14.0625 1.25 13.8281C0.833333 12.7604 0.625 11.6667 0.625 10.5469C0.625 9.53125 0.820312 8.63281 1.21094 7.85156C1.75781 6.67969 2.59115 5.74219 3.71094 5.03906C4.85677 4.33594 6.10677 3.98438 7.46094 3.98438C9.36198 3.98438 10.9766 4.63542 12.3047 5.9375C13.6589 7.21354 14.3359 8.75 14.3359 10.5469C14.3359 11.224 14.0755 11.7969 13.5547 12.2656C13.0599 12.7344 12.4609 12.9688 11.7578 12.9688C11.0547 12.9688 10.4557 12.7344 9.96094 12.2656C9.46615 11.7969 9.21875 11.224 9.21875 10.5469C9.21875 10.1042 9.04948 9.72656 8.71094 9.41406C8.3724 9.07552 7.95573 8.90625 7.46094 8.90625C6.96615 8.90625 6.54948 9.07552 6.21094 9.41406C5.89844 9.72656 5.74219 10.1042 5.74219 10.5469C5.74219 12.0052 6.26302 13.2552 7.30469 14.2969C8.03385 15.026 8.94531 15.5339 10.0391 15.8203C10.2734 15.8464 10.3646 16.0156 10.3125 16.3281C10.2604 16.5365 10.1302 16.6406 9.92188 16.6406ZM7.85156 10.5469C7.85156 11.5104 8.20312 12.3438 8.90625 13.0469C9.63542 13.75 10.5339 14.1016 11.6016 14.1016C11.6536 14.1016 11.7708 14.0885 11.9531 14.0625C12.1354 14.0365 12.2786 14.0234 12.3828 14.0234C12.513 14.0234 12.6302 14.0495 12.7344 14.1016C12.8646 14.1276 12.9427 14.2057 12.9688 14.3359C13.0208 14.6224 12.9036 14.7917 12.6172 14.8438C12.3047 14.8958 11.9661 14.9219 11.6016 14.9219C10.5599 14.9219 9.70052 14.6745 9.02344 14.1797C7.69531 13.2682 7.03125 12.0573 7.03125 10.5469C7.03125 10.2604 7.17448 10.1172 7.46094 10.1172C7.72135 10.1172 7.85156 10.2604 7.85156 10.5469ZM5.625 16.4844C5.52083 16.4844 5.42969 16.4453 5.35156 16.3672C4.64844 15.6641 4.08854 14.9219 3.67188 14.1406C3.07292 13.099 2.77344 11.901 2.77344 10.5469C2.77344 9.32292 3.22917 8.26823 4.14062 7.38281C5.07812 6.4974 6.19792 6.05469 7.5 6.05469C8.80208 6.05469 9.90885 6.4974 10.8203 7.38281C11.7578 8.26823 12.2266 9.32292 12.2266 10.5469C12.2266 10.8073 12.0833 10.9375 11.7969 10.9375C11.5104 10.9375 11.3672 10.8073 11.3672 10.5469C11.3672 9.53125 10.9896 8.67188 10.2344 7.96875C9.47917 7.23958 8.56771 6.875 7.5 6.875C6.43229 6.875 5.52083 7.23958 4.76562 7.96875C4.01042 8.67188 3.63281 9.53125 3.63281 10.5469C3.63281 11.7969 3.88021 12.8646 4.375 13.75C4.71354 14.349 5.23438 15.026 5.9375 15.7812C6.14583 15.9635 6.14583 16.1589 5.9375 16.3672C5.85938 16.4453 5.75521 16.4844 5.625 16.4844ZM0.429688 6.40625C0.143229 6.40625 0 6.27604 0 6.01562C0 5.96354 0.0260417 5.88542 0.078125 5.78125C0.911458 4.58333 1.95312 3.67188 3.20312 3.04688C4.50521 2.36979 5.9375 2.03125 7.5 2.03125C9.0625 2.03125 10.4948 2.36979 11.7969 3.04688C13.0729 3.67188 14.1146 4.57031 14.9219 5.74219C14.974 5.84635 15 5.92448 15 5.97656C15 6.15885 14.8958 6.28906 14.6875 6.36719C14.4792 6.44531 14.3229 6.39323 14.2188 6.21094C13.4375 5.14323 12.5 4.33594 11.4062 3.78906C10.2083 3.1901 8.90625 2.89062 7.5 2.89062C6.09375 2.86458 4.79167 3.16406 3.59375 3.78906C2.42188 4.38802 1.47135 5.20833 0.742188 6.25C0.664062 6.35417 0.559896 6.40625 0.429688 6.40625ZM12.3438 2.03125C12.2396 2.03125 12.1745 2.01823 12.1484 1.99219C10.612 1.21094 9.0625 0.820312 7.5 0.820312C5.80729 0.820312 4.25781 1.21094 2.85156 1.99219C2.72135 2.07031 2.59115 2.07031 2.46094 1.99219C2.33073 1.91406 2.26562 1.79688 2.26562 1.64062C2.26562 1.45833 2.33073 1.32812 2.46094 1.25C3.97135 0.416667 5.65104 0 7.5 0C9.19271 0 10.8724 0.416667 12.5391 1.25C12.7734 1.38021 12.8255 1.5625 12.6953 1.79688C12.5911 1.95312 12.474 2.03125 12.3438 2.03125Z" fill="#0DA6F2"/>
</svg>
