<svg width="38" height="38" viewBox="0 0 38 38" fill="none" xmlns="http://www.w3.org/2000/svg">
<path d="M25.3333 4.75C27.433 4.75 29.4466 5.58407 30.9313 7.06874C32.4159 8.5534 33.25 10.567 33.25 12.6667V25.3333C33.25 27.433 32.4159 29.4466 30.9313 30.9313C29.4466 32.4159 27.433 33.25 25.3333 33.25H12.6667C10.567 33.25 8.5534 32.4159 7.06874 30.9313C5.58407 29.4466 4.75 27.433 4.75 25.3333V12.6667C4.75 10.567 5.58407 8.5534 7.06874 7.06874C8.5534 5.58407 10.567 4.75 12.6667 4.75H25.3333ZM24.8979 15.58C24.31 15.58 23.7848 15.6819 23.3225 15.8856C22.8623 16.0914 22.4992 16.3764 22.2332 16.7406C21.9703 17.1047 21.8405 17.5312 21.8437 18.0199C21.8405 18.6152 22.0358 19.0887 22.4295 19.4402C22.8232 19.7917 23.36 20.0503 24.0397 20.216L24.9169 20.4377C25.2104 20.5073 25.4584 20.5854 25.6611 20.672C25.8659 20.7586 26.0205 20.8636 26.125 20.9871C26.2342 21.1134 26.2918 21.2762 26.2865 21.4431C26.2904 21.6307 26.2276 21.8137 26.1092 21.9592C25.977 22.1178 25.8048 22.2381 25.6104 22.3076C25.3983 22.392 25.147 22.4342 24.8568 22.4342C24.5644 22.4342 24.301 22.3899 24.0667 22.3013C23.8482 22.2197 23.6564 22.0795 23.5125 21.8959C23.3713 21.6971 23.2905 21.4618 23.2797 21.2183H21.6299C21.6426 21.7988 21.783 22.2859 22.0511 22.6797C22.3213 23.0702 22.696 23.3652 23.1753 23.5648C23.6597 23.7653 24.2271 23.8656 24.8773 23.8656C25.5328 23.8656 26.0928 23.7669 26.5573 23.5695C27.0238 23.3689 27.3806 23.0892 27.6276 22.7303C27.8777 22.3683 28.0044 21.9408 28.0076 21.4478C28.0105 21.1397 27.9468 20.8345 27.8207 20.5532C27.7027 20.296 27.533 20.0658 27.322 19.8772C27.093 19.678 26.8351 19.5147 26.5573 19.3927C26.2466 19.2561 25.923 19.1511 25.5914 19.0792L24.8647 18.905C24.6975 18.8665 24.5326 18.8189 24.3707 18.7625C24.2265 18.7115 24.0884 18.6446 23.959 18.563C23.8475 18.4902 23.7526 18.3947 23.6803 18.2828C23.6116 18.1697 23.5801 18.0379 23.5901 17.9059C23.5901 17.7328 23.6397 17.5782 23.7389 17.442C23.8538 17.2956 24.0074 17.1843 24.1822 17.1206C24.3722 17.0414 24.6066 17.0024 24.8853 17.0034C25.2937 17.0034 25.6178 17.0916 25.8574 17.2678C26.097 17.4441 26.2321 17.6906 26.2627 18.0073H27.8952C27.896 17.5561 27.762 17.115 27.5104 16.7406C27.2472 16.3644 26.885 16.0685 26.4638 15.8856C25.9696 15.6715 25.4348 15.5672 24.8963 15.58M16.853 15.58C16.1352 15.58 15.4913 15.7426 14.9213 16.0677C14.3466 16.3993 13.8786 16.8882 13.5723 17.4768C13.243 18.0933 13.0778 18.8406 13.0767 19.7188C13.0767 20.596 13.2419 21.3428 13.5723 21.9592C13.9027 22.5757 14.3529 23.047 14.9229 23.3732C15.4929 23.6972 16.1363 23.8593 16.853 23.8593C17.5644 23.8593 18.2041 23.6983 18.772 23.3763C19.3491 23.0441 19.8189 22.5534 20.1257 21.9624C20.4593 21.3449 20.6261 20.5971 20.6261 19.7188C20.6261 18.8406 20.4593 18.0933 20.1257 17.4768C19.8204 16.886 19.3501 16.3965 18.772 16.0677C18.1867 15.7384 17.5245 15.5701 16.853 15.58ZM11.8433 17.7048H10.1697V23.75H11.8433V17.7048ZM16.853 17.0873C17.2647 17.0873 17.6236 17.1881 17.9297 17.3898C18.2368 17.5924 18.4743 17.889 18.6422 18.2796C18.8132 18.6701 18.8987 19.1504 18.8987 19.7204C18.8987 20.2883 18.8132 20.7686 18.6422 21.1612C18.4982 21.5211 18.2501 21.8298 17.9297 22.0479C17.6094 22.255 17.2343 22.3609 16.853 22.3519C16.4413 22.3519 16.0814 22.2511 15.7732 22.0495C15.4524 21.8296 15.2034 21.5201 15.0575 21.1597C14.8886 20.7691 14.8042 20.2888 14.8042 19.7188C14.8042 19.1499 14.8886 18.6696 15.0575 18.278C15.2264 17.8874 15.4649 17.5919 15.7732 17.3913C16.0793 17.1887 16.4392 17.0873 16.853 17.0873ZM11.0105 15.2285C10.7716 15.2248 10.541 15.3159 10.3692 15.4818C10.2857 15.5575 10.2189 15.6499 10.1732 15.753C10.1275 15.8561 10.1038 15.9676 10.1038 16.0803C10.1038 16.1931 10.1275 16.3046 10.1732 16.4077C10.2189 16.5108 10.2857 16.6031 10.3692 16.6788C10.5417 16.8421 10.7715 16.9309 11.0089 16.9258C11.246 16.93 11.4752 16.8407 11.647 16.6772C11.7315 16.6021 11.7991 16.5099 11.8453 16.4067C11.8916 16.3036 11.9156 16.1918 11.9156 16.0787C11.9156 15.9657 11.8916 15.8539 11.8453 15.7508C11.7991 15.6476 11.7315 15.5554 11.647 15.4803C11.5627 15.398 11.4628 15.3334 11.3533 15.2902C11.2437 15.2469 11.1282 15.226 11.0105 15.2285Z" fill="#00C0E8"/>
</svg>
