<svg width="60" height="60" viewBox="0 0 60 60" fill="none" xmlns="http://www.w3.org/2000/svg">
<path d="M30 2.46094L52.5 12.5391V27.5391C52.5 34.4922 50.3516 40.8594 46.0547 46.6406C41.7578 52.3438 36.4062 55.9766 30 57.5391C23.5938 55.9766 18.2422 52.3438 13.9453 46.6406C9.64844 40.8594 7.5 34.4922 7.5 27.5391V12.5391L30 2.46094Z" fill="#137FEC"/>
<path d="M36.2695 35.75L41.25 32V35.75C41.25 36.9609 40.8984 38.0938 40.1953 39.1484C39.5312 40.2031 38.6328 41.1406 37.5 41.9609C36.4062 42.7422 35.1953 43.3672 33.8672 43.8359C32.5781 44.2656 31.2891 44.4805 30 44.4805C28.7109 44.4805 27.4023 44.2656 26.0742 43.8359C24.7852 43.3672 23.5742 42.7422 22.4414 41.9609C21.3477 41.1406 20.4492 40.2031 19.7461 39.1484C19.082 38.0938 18.75 36.9609 18.75 35.75V32L23.7305 35.75L21.7969 37.6836C22.2266 38.3867 22.793 39.0312 23.4961 39.6172C24.2383 40.2031 25.0586 40.6914 25.957 41.082C26.8945 41.4727 27.832 41.7461 28.7695 41.9023V30.7695H25.0195V28.25H28.7695V26.7852C28.0273 26.5117 27.4219 26.0625 26.9531 25.4375C26.4844 24.7734 26.25 24.0508 26.25 23.2695C26.25 22.5664 26.4062 21.9414 26.7188 21.3945C27.0703 20.8086 27.5195 20.3594 28.0664 20.0469C28.6523 19.6953 29.2969 19.5195 30 19.5195C30.7031 19.5195 31.3281 19.6953 31.875 20.0469C32.4609 20.3594 32.9102 20.8086 33.2227 21.3945C33.5742 21.9414 33.75 22.5664 33.75 23.2695C33.75 24.0508 33.5156 24.7734 33.0469 25.4375C32.5781 26.0625 31.9727 26.5117 31.2305 26.7852V28.25H34.9805V30.7695H31.2305V41.9023C32.168 41.7461 33.0859 41.4727 33.9844 41.082C34.9219 40.6914 35.7422 40.2031 36.4453 39.6172C37.1875 39.0312 37.7734 38.3867 38.2031 37.6836L36.2695 35.75ZM30 21.9805C29.6484 21.9805 29.3555 22.1172 29.1211 22.3906C28.8867 22.625 28.7695 22.918 28.7695 23.2695C28.7695 23.582 28.8867 23.875 29.1211 24.1484C29.3555 24.3828 29.6484 24.5 30 24.5C30.3516 24.5 30.6445 24.3828 30.8789 24.1484C31.1133 23.875 31.2305 23.582 31.2305 23.2695C31.2305 22.918 31.1133 22.625 30.8789 22.3906C30.6445 22.1172 30.3516 21.9805 30 21.9805Z" fill="white"/>
</svg>
