<svg width="50" height="41" viewBox="0 0 50 41" fill="none" xmlns="http://www.w3.org/2000/svg">
<path d="M45 10.0781V5.03906L24.9609 17.5781L4.92188 5.03906V10.0781L24.9609 22.5L45 10.0781ZM45 0C46.3281 0 47.4609 0.507812 48.3984 1.52344C49.4141 2.53906 49.9219 3.71094 49.9219 5.03906V35.0391C49.9219 36.3672 49.4141 37.5391 48.3984 38.5547C47.4609 39.5703 46.3281 40.0781 45 40.0781H4.92188C3.59375 40.0781 2.42188 39.5703 1.40625 38.5547C0.46875 37.5391 0 36.3672 0 35.0391V5.03906C0 3.71094 0.46875 2.53906 1.40625 1.52344C2.42188 0.507812 3.59375 0 4.92188 0H45Z" fill="white" fill-opacity="0.8"/>
</svg>
