<svg width="23" height="12" viewBox="0 0 23 12" fill="none" xmlns="http://www.w3.org/2000/svg">
<path d="M1.03125 10.0312V12H21V10.0312H1.03125ZM2.15625 5.95312L0.84375 5.20312L1.73438 3.75H0V2.25H1.73438L0.84375 0.75L2.15625 0L3 1.5L3.84375 0L5.15625 0.75L4.3125 2.25H6V3.75H4.3125L5.15625 5.20312L3.84375 5.95312L3 4.5L2.15625 5.95312ZM8.85938 5.20312L9.70312 3.75H8.01562V2.25H9.70312L8.85938 0.75L10.1719 0L11.0156 1.5L11.8594 0L13.1719 0.75L12.3281 2.25H14.0156V3.75H12.3281L13.1719 5.20312L11.8594 5.95312L11.0156 4.5L10.1719 5.95312L8.85938 5.20312ZM22.0312 2.25V3.75H20.2969L21.1875 5.20312L19.875 5.95312L19.0312 4.5L18.1875 5.95312L16.875 5.20312L17.7188 3.75H16.0312V2.25H17.7188L16.875 0.75L18.1875 0L19.0312 1.5L19.875 0L21.1875 0.75L20.2969 2.25H22.0312Z" fill="#0DA6F2"/>
</svg>
