<svg width="325" height="148" viewBox="0 0 325 148" fill="none" xmlns="http://www.w3.org/2000/svg">
<g clip-path="url(#clip0_32_2620)">
<path d="M2.0376 107.547C14.368 107.547 14.368 20.7201 26.6985 20.7201C39.0289 20.7201 39.0289 40.4535 51.3594 40.4535C63.6898 40.4535 63.6898 91.7601 76.0202 91.7601C88.3507 91.7601 88.3507 32.5602 100.681 32.5602C113.012 32.5602 113.012 99.6535 125.342 99.6535C137.672 99.6535 137.672 60.1868 150.003 60.1868C162.333 60.1868 162.333 44.4002 174.664 44.4002C186.994 44.4002 186.994 119.387 199.325 119.387C211.655 119.387 211.655 147.013 223.985 147.013C236.316 147.013 236.316 0.986816 248.646 0.986816C260.977 0.986816 260.977 79.9202 273.307 79.9202C285.637 79.9202 285.637 127.28 297.968 127.28C310.298 127.28 310.298 24.6668 322.629 24.6668V147.013H223.985H2.0376V107.547Z" fill="url(#paint0_linear_32_2620)"/>
<path d="M2.0376 107.547C14.368 107.547 14.368 20.7201 26.6985 20.7201C39.0289 20.7201 39.0289 40.4535 51.3594 40.4535C63.6898 40.4535 63.6898 91.7602 76.0202 91.7602C88.3507 91.7602 88.3507 32.5602 100.681 32.5602C113.012 32.5602 113.012 99.6535 125.342 99.6535C137.672 99.6535 137.672 60.1868 150.003 60.1868C162.333 60.1868 162.333 44.4002 174.664 44.4002C186.994 44.4002 186.994 119.387 199.325 119.387C211.655 119.387 211.655 147.013 223.985 147.013C236.316 147.013 236.316 0.986816 248.646 0.986816C260.977 0.986816 260.977 79.9202 273.307 79.9202C285.637 79.9202 285.637 127.28 297.968 127.28C310.298 127.28 310.298 24.6668 322.629 24.6668" stroke="#137FEC" stroke-width="2.4559" stroke-linecap="round"/>
</g>
<defs>
<linearGradient id="paint0_linear_32_2620" x1="162.333" y1="0.986816" x2="162.333" y2="147.013" gradientUnits="userSpaceOnUse">
<stop stop-color="#137FEC" stop-opacity="0.2"/>
<stop offset="1" stop-color="#137FEC" stop-opacity="0"/>
</linearGradient>
<clipPath id="clip0_32_2620">
<rect width="324.667" height="148" fill="white"/>
</clipPath>
</defs>
</svg>
